<?xml version="1.0" encoding="UTF-8" standalone="no"?>
<svg width="28px" height="33px" viewBox="0 0 28 33" version="1.1" xmlns="http://www.w3.org/2000/svg" xmlns:xlink="http://www.w3.org/1999/xlink">
    <!-- Generator: Sketch 3.6.1 (26313) - http://www.bohemiancoding.com/sketch -->
    <title>pause</title>
    <desc>Created with Sketch.</desc>
    <defs></defs>
    <g id="Page-1" stroke="none" stroke-width="1" fill="none" fill-rule="evenodd">
        <g id="pause" fill="#34314C">
            <g id="Page-2">
                <g id="Desktop-HD-Copy-10">
                    <path d="M0,2.002285 C0,0.896454 0.90195,0 2.00853,0 L9.99147,0 C11.10075,0 12,0.899785 12,2.002285 L12,30.997715 C12,32.103546 11.09805,33 9.99147,33 L2.00853,33 C0.89925,33 0,32.100215 0,30.997715 L0,2.002285 L0,2.002285 Z M16,2.002285 C16,0.896454 16.90195,0 18.00853,0 L25.99147,0 C27.10075,0 28,0.899785 28,2.002285 L28,30.997715 C28,32.103546 27.09805,33 25.99147,33 L18.00853,33 C16.89925,33 16,32.100215 16,30.997715 L16,2.002285 L16,2.002285 Z" id="pause"></path>
                </g>
            </g>
        </g>
    </g>
</svg>