<?xml version="1.0" encoding="UTF-8" standalone="no"?>
<svg width="32px" height="21px" viewBox="0 0 32 21" version="1.1" xmlns="http://www.w3.org/2000/svg" xmlns:xlink="http://www.w3.org/1999/xlink">
    <!-- Generator: Sketch 3.6.1 (26313) - http://www.bohemiancoding.com/sketch -->
    <title>rewind</title>
    <desc>Created with Sketch.</desc>
    <defs></defs>
    <g id="Page-1" stroke="none" stroke-width="1" fill="none" fill-rule="evenodd">
        <g id="rewind" fill="#34314C">
            <g id="Page-2">
                <g id="Desktop-HD-Copy-10">
                    <g id="player-controls">
                        <path d="M15.5000006,11.893867 L1.72586125,19.9786879 C0.774534057,20.5370756 5.69387375e-07,20.0986975 5.69387375e-07,18.9971317 L5.69387375e-07,1.98625457 C5.69387375e-07,0.89403687 0.765520595,0.46099018 1.7098374,1.03989744 L15.5000006,9.493867 L15.5000006,1.98625457 C15.5000006,0.89403687 16.2655206,0.45786055 17.2098374,1.03290721 L31.2901638,9.6071956 C32.2367947,10.1836515 32.2273065,11.1051066 31.2741399,11.6684707 L17.2258613,19.9716322 C16.2745341,20.5339092 15.5000006,20.0986975 15.5000006,18.9971317 L15.5000006,11.893867 L15.5000006,11.893867 Z" id="rewind" transform="translate(15.997304, 10.500000) scale(-1, 1) translate(-15.997304, -10.500000) "></path>
                    </g>
                </g>
            </g>
        </g>
    </g>
</svg>